<?xml version="1.0" encoding="UTF-8"?>
<!-- Generated by Pixelmator Pro 3.6.4 -->
<svg width="150" height="150" viewBox="0 0 150 150" xmlns="http://www.w3.org/2000/svg">
    <path id="Path" fill="#000000" stroke="none" d="M 39 22 C 29.058857 22 21 30.058853 21 40 L 21 112 C 21 121.941147 29.058857 130 39 130 L 111 130 C 120.941147 130 129 121.941147 129 112 L 129 40 C 129 30.058853 120.941147 22 111 22 L 39 22 Z M 44.363842 45.14286 L 64.774551 45.14286 L 79.268974 65.739395 L 96.85714 45.14286 L 103.285713 45.14286 L 82.171875 69.862724 L 108.207588 106.857147 L 87.801895 106.857147 L 70.98214 82.960938 L 50.57143 106.857147 L 44.142857 106.857147 L 68.079239 78.837608 L 44.363842 45.14286 Z M 54.207588 50.285713 L 90.483818 101.714287 L 98.363838 101.714287 L 62.087612 50.285713 L 54.207588 50.285713 Z"/>
</svg>
